<mxfile host="app.diagrams.net" agent="Mozilla/5.0 (Windows NT 10.0; Win64; x64) AppleWebKit/537.36 (KHTML, like Gecko) Chrome/127.0.0.0 Safari/537.36" version="24.7.7">
  <diagram name="Page-1" id="3vriqPeWiTW231ZVnOyV">
    <mxGraphModel dx="882" dy="914" grid="1" gridSize="10" guides="1" tooltips="1" connect="1" arrows="1" fold="1" page="1" pageScale="1" pageWidth="850" pageHeight="1100" math="0" shadow="0">
      <root>
        <mxCell id="0" />
        <mxCell id="1" parent="0" />
        <mxCell id="TphrAk26sP5lvCWuY2do-1" value="C++03:&amp;nbsp; &amp;nbsp; &amp;nbsp; &amp;nbsp; &amp;nbsp; &amp;nbsp; &amp;nbsp; &amp;nbsp; &amp;nbsp; &amp;nbsp;operator[]&amp;nbsp; &amp;nbsp; &amp;nbsp; &amp;nbsp; &amp;nbsp; &amp;nbsp; &amp;nbsp; insert()&amp;nbsp;" style="rounded=0;whiteSpace=wrap;html=1;align=left;fontSize=14;" vertex="1" parent="1">
          <mxGeometry x="260" y="200" width="300" height="40" as="geometry" />
        </mxCell>
        <mxCell id="TphrAk26sP5lvCWuY2do-2" value="C++11:&amp;nbsp; &amp;nbsp; &amp;nbsp; &amp;nbsp; &amp;nbsp; &amp;nbsp; &amp;nbsp; &amp;nbsp; &amp;nbsp; &amp;nbsp;operator[]&amp;nbsp; &amp;nbsp; &amp;nbsp; &amp;nbsp; &amp;nbsp; &amp;nbsp; &amp;nbsp;emplace()&amp;nbsp;" style="rounded=0;whiteSpace=wrap;html=1;align=left;fontSize=14;" vertex="1" parent="1">
          <mxGeometry x="260" y="260" width="300" height="40" as="geometry" />
        </mxCell>
        <mxCell id="TphrAk26sP5lvCWuY2do-3" value="c++17:&amp;nbsp; &amp;nbsp; &amp;nbsp; &amp;nbsp; &amp;nbsp; &amp;nbsp;insert_or_assign()&amp;nbsp; &amp;nbsp;try_emplace()" style="rounded=0;whiteSpace=wrap;html=1;align=left;fontSize=14;" vertex="1" parent="1">
          <mxGeometry x="260" y="320" width="300" height="40" as="geometry" />
        </mxCell>
        <mxCell id="TphrAk26sP5lvCWuY2do-4" value="return info with prior lookup only,&amp;nbsp; default constructor required" style="text;html=1;align=center;verticalAlign=middle;whiteSpace=wrap;rounded=0;fontSize=14;" vertex="1" parent="1">
          <mxGeometry x="90" y="230" width="150" height="40" as="geometry" />
        </mxCell>
        <mxCell id="TphrAk26sP5lvCWuY2do-5" value="return info available, default constructor NOT required" style="text;html=1;align=center;verticalAlign=middle;whiteSpace=wrap;rounded=0;fontSize=14;" vertex="1" parent="1">
          <mxGeometry x="90" y="320" width="150" height="40" as="geometry" />
        </mxCell>
        <mxCell id="TphrAk26sP5lvCWuY2do-7" value="steals from arguments without prior lookup" style="text;html=1;align=center;verticalAlign=middle;whiteSpace=wrap;rounded=0;fontSize=14;" vertex="1" parent="1">
          <mxGeometry x="570" y="200" width="150" height="40" as="geometry" />
        </mxCell>
        <mxCell id="TphrAk26sP5lvCWuY2do-8" value="steals from arguments without prior lookup, complicated piecewise construct" style="text;html=1;align=center;verticalAlign=middle;whiteSpace=wrap;rounded=0;fontSize=14;" vertex="1" parent="1">
          <mxGeometry x="570" y="260" width="190" height="40" as="geometry" />
        </mxCell>
        <mxCell id="TphrAk26sP5lvCWuY2do-9" value="preserves arguments, simplified piecewise construct" style="text;html=1;align=center;verticalAlign=middle;whiteSpace=wrap;rounded=0;fontSize=14;" vertex="1" parent="1">
          <mxGeometry x="555" y="320" width="220" height="40" as="geometry" />
        </mxCell>
        <mxCell id="TphrAk26sP5lvCWuY2do-10" value="overwrites value" style="text;html=1;align=center;verticalAlign=middle;whiteSpace=wrap;rounded=0;fontSize=14;" vertex="1" parent="1">
          <mxGeometry x="350" y="150" width="90" height="40" as="geometry" />
        </mxCell>
        <mxCell id="TphrAk26sP5lvCWuY2do-11" value="&lt;div&gt;Doesn&#39;t&lt;/div&gt;overwrites value" style="text;html=1;align=center;verticalAlign=middle;whiteSpace=wrap;rounded=0;fontSize=14;" vertex="1" parent="1">
          <mxGeometry x="470" y="140" width="90" height="50" as="geometry" />
        </mxCell>
      </root>
    </mxGraphModel>
  </diagram>
</mxfile>
